<?xml version="1.0" encoding="utf-8"?>
<!-- Generator: Adobe Illustrator 19.2.1, SVG Export Plug-In . SVG Version: 6.00 Build 0)  -->
<svg version="1.1" id="Layer_1" xmlns="http://www.w3.org/2000/svg" xmlns:xlink="http://www.w3.org/1999/xlink" x="0px" y="0px"
	 viewBox="0 0 24 17" style="enable-background:new 0 0 24 17;" xml:space="preserve">
<style type="text/css">
	.st0{fill:#FFFFFF;}
</style>
<path class="st0" d="M2,14h20c0.8,0,2,0.7,2,1.5c0,0.8-1.2,1.5-2,1.5H2c-0.8,0-2-0.7-2-1.5S1.2,14,2,14z"/>
<path class="st0" d="M2,7h20c0.8,0,2,0.7,2,1.5S22.8,10,22,10H2c-0.8,0-2-0.7-2-1.5S1.2,7,2,7z"/>
<path class="st0" d="M2,0h20c0.8,0,2,0.7,2,1.5S22.8,3,22,3H2C1.2,3,0,2.3,0,1.5S1.2,0,2,0z"/>
</svg>
